<?xml version="1.0" encoding="UTF-8" ?>
<!DOCTYPE svg PUBLIC "-//W3C//DTD SVG 1.1//EN" "http://www.w3.org/Graphics/SVG/1.1/DTD/svg11.dtd">
<svg width="703pt" height="697pt" viewBox="0 0 703 697" version="1.1" xmlns="http://www.w3.org/2000/svg">
<g id="#ffffffff">
<path fill="#ffffff" opacity="1.00" d=" M 0.00 0.00 L 703.00 0.00 L 703.00 697.00 L 0.00 697.00 L 0.00 0.00 M 274.09 80.81 C 242.59 90.61 212.31 105.04 186.06 125.15 C 155.77 148.53 130.81 179.08 114.86 213.92 C 103.04 239.70 96.14 267.68 94.20 295.96 C 91.98 316.06 94.60 336.24 97.37 356.15 C 104.18 394.05 120.79 430.03 144.82 460.09 C 159.54 478.98 177.65 494.91 196.97 508.96 C 211.00 519.73 227.16 527.17 242.85 535.16 C 245.30 536.55 248.73 536.97 250.20 539.61 C 251.38 544.30 251.37 549.19 251.62 553.99 C 241.10 553.76 230.56 555.04 220.06 554.13 C 215.04 553.81 210.02 554.15 205.00 553.94 C 192.01 553.34 179.01 554.54 166.02 554.04 C 164.46 554.20 162.28 553.31 161.34 555.08 C 162.77 555.53 164.20 556.01 165.62 556.51 C 163.99 556.46 162.37 556.40 160.75 556.31 C 160.66 555.72 160.48 554.54 160.39 553.95 C 152.56 554.03 144.68 554.76 136.89 553.52 C 124.98 552.12 114.21 545.63 106.07 537.03 C 97.96 528.35 91.91 517.24 91.03 505.24 C 86.27 505.24 81.50 505.24 76.74 505.24 C 76.68 536.15 76.73 567.06 76.72 597.97 C 76.94 604.48 77.24 610.99 77.00 617.51 C 149.20 617.58 221.40 617.30 293.60 617.74 C 289.56 585.55 287.25 553.17 283.11 520.99 C 267.21 515.43 253.54 505.09 241.43 493.60 C 239.00 491.43 237.12 488.68 234.45 486.78 C 233.85 485.66 233.30 484.51 232.52 483.52 C 221.68 471.10 213.50 456.64 206.04 442.02 C 200.41 429.32 194.90 416.47 191.40 402.99 C 190.48 403.24 189.57 403.49 188.65 403.74 C 189.34 402.80 190.04 401.86 190.74 400.93 C 185.37 382.40 182.86 363.19 181.00 344.04 C 180.73 333.68 179.59 323.37 179.99 313.00 C 179.52 304.95 180.98 296.99 181.07 288.96 C 184.41 250.10 194.87 211.44 214.65 177.64 C 223.36 163.20 233.71 149.64 246.08 138.12 C 267.00 117.64 294.46 104.49 323.06 98.91 C 333.27 97.25 343.66 96.85 354.00 97.00 C 366.86 96.56 379.64 99.20 391.92 102.86 C 422.91 111.89 449.58 132.51 469.34 157.67 C 494.56 190.73 510.40 230.65 515.50 271.87 C 518.31 292.13 519.08 312.66 517.79 333.07 C 515.81 371.25 507.96 409.57 490.93 443.99 C 482.39 461.16 471.93 477.62 457.97 490.90 C 445.74 503.24 431.44 513.67 415.28 520.24 C 411.49 552.63 408.38 585.09 405.00 617.52 C 477.52 617.61 550.03 617.23 622.54 617.73 C 622.52 580.23 622.34 542.73 622.34 505.23 C 617.33 505.25 612.32 505.23 607.31 505.25 C 606.83 512.99 604.44 520.64 600.16 527.13 C 596.73 532.55 592.13 537.05 587.70 541.63 C 584.68 544.81 580.76 546.91 576.90 548.90 C 562.95 555.62 547.01 554.80 531.97 553.94 C 512.98 553.60 493.98 553.62 474.99 554.13 C 465.57 554.77 456.06 555.23 446.72 553.44 C 447.11 548.55 447.78 543.68 447.91 538.78 C 450.28 537.40 452.76 536.24 455.29 535.21 C 482.62 522.47 508.41 506.11 530.40 485.39 C 547.11 469.80 561.09 451.47 572.98 432.00 C 591.35 400.34 601.69 364.28 604.29 327.82 C 604.59 321.89 605.69 315.97 605.10 310.03 C 604.03 295.34 603.41 280.55 600.43 266.08 C 597.00 249.18 591.64 232.70 585.18 216.73 C 570.32 183.95 548.12 154.64 521.08 130.94 C 506.35 119.37 491.08 108.32 474.33 99.83 C 457.00 91.72 439.37 83.95 420.78 79.17 C 402.62 74.03 383.85 71.31 365.04 70.07 C 356.03 69.93 347.01 70.00 337.99 70.03 C 316.40 71.38 294.90 74.88 274.09 80.81 Z" />
</g>
<g id="#a7873aff">
<path fill="#a7873a" opacity="1.00" d=" M 274.09 80.81 C 294.90 74.88 316.40 71.38 337.99 70.03 C 347.01 70.00 356.03 69.93 365.04 70.07 C 383.85 71.31 402.62 74.03 420.78 79.17 C 439.37 83.95 457.00 91.72 474.33 99.83 C 491.08 108.32 506.35 119.37 521.08 130.94 C 548.12 154.64 570.32 183.95 585.18 216.73 C 591.64 232.70 597.00 249.18 600.43 266.08 C 603.41 280.55 604.03 295.34 605.10 310.03 C 605.69 315.97 604.59 321.89 604.29 327.82 C 601.69 364.28 591.35 400.34 572.98 432.00 C 561.09 451.47 547.11 469.80 530.40 485.39 C 508.41 506.11 482.62 522.47 455.29 535.21 C 452.76 536.24 450.28 537.40 447.91 538.78 C 447.78 543.68 447.11 548.55 446.72 553.44 C 456.06 555.23 465.57 554.77 474.99 554.13 C 493.98 553.62 512.98 553.60 531.97 553.94 C 547.01 554.80 562.95 555.62 576.90 548.90 C 580.76 546.91 584.68 544.81 587.70 541.63 C 592.13 537.05 596.73 532.55 600.16 527.13 C 604.44 520.64 606.83 512.99 607.31 505.25 C 612.32 505.23 617.33 505.25 622.34 505.23 C 622.34 542.73 622.52 580.23 622.54 617.73 C 550.03 617.23 477.52 617.61 405.00 617.52 C 408.38 585.09 411.49 552.63 415.28 520.24 C 431.44 513.67 445.74 503.24 457.97 490.90 C 471.93 477.62 482.39 461.16 490.93 443.99 C 507.96 409.57 515.81 371.25 517.79 333.07 C 519.08 312.66 518.31 292.13 515.50 271.87 C 510.40 230.65 494.56 190.73 469.34 157.67 C 449.58 132.51 422.91 111.89 391.92 102.86 C 379.64 99.20 366.86 96.56 354.00 97.00 C 343.66 96.85 333.27 97.25 323.06 98.91 C 294.46 104.49 267.00 117.64 246.08 138.12 C 233.71 149.64 223.36 163.20 214.65 177.64 C 194.87 211.44 184.41 250.10 181.07 288.96 C 180.98 296.99 179.52 304.95 179.99 313.00 C 179.59 323.37 180.73 333.68 181.00 344.04 C 182.86 363.19 185.37 382.40 190.74 400.93 C 190.04 401.86 189.34 402.80 188.65 403.74 C 189.57 403.49 190.48 403.24 191.40 402.99 C 194.90 416.47 200.41 429.32 206.04 442.02 C 213.50 456.64 221.68 471.10 232.52 483.52 C 233.30 484.51 233.85 485.66 234.45 486.78 C 237.12 488.68 239.00 491.43 241.43 493.60 C 253.54 505.09 267.21 515.43 283.11 520.99 C 287.25 553.17 289.56 585.55 293.60 617.74 C 221.40 617.30 149.20 617.58 77.00 617.51 C 77.24 610.99 76.94 604.48 76.72 597.97 C 76.73 567.06 76.68 536.15 76.74 505.24 C 81.50 505.24 86.27 505.24 91.03 505.24 C 91.91 517.24 97.96 528.35 106.07 537.03 C 114.21 545.63 124.98 552.12 136.89 553.52 C 144.68 554.76 152.56 554.03 160.39 553.95 C 160.48 554.54 160.66 555.72 160.75 556.31 C 162.37 556.40 163.99 556.46 165.62 556.51 C 164.20 556.01 162.77 555.53 161.34 555.08 C 162.28 553.31 164.46 554.20 166.02 554.04 C 179.01 554.54 192.01 553.34 205.00 553.94 C 210.02 554.15 215.04 553.81 220.06 554.13 C 230.56 555.04 241.10 553.76 251.62 553.99 C 251.37 549.19 251.38 544.30 250.20 539.61 C 248.73 536.97 245.30 536.55 242.85 535.16 C 227.16 527.17 211.00 519.73 196.97 508.96 C 177.65 494.91 159.54 478.98 144.82 460.09 C 120.79 430.03 104.18 394.05 97.37 356.15 C 94.60 336.24 91.98 316.06 94.20 295.96 C 96.14 267.68 103.04 239.70 114.86 213.92 C 130.81 179.08 155.77 148.53 186.06 125.15 C 212.31 105.04 242.59 90.61 274.09 80.81 Z" />
</g>
</svg>
